<svg xmlns="http://www.w3.org/2000/svg" width="512" height="512" viewBox="0 0 512 512">
  <defs>
    <linearGradient id="sky" x1="0" y1="0" x2="0" y2="1">
      <stop offset="0" stop-color="#16274f"/>
      <stop offset="1" stop-color="#060a16"/>
    </linearGradient>
    <radialGradient id="glow" cx="0.5" cy="0.5" r="0.5">
      <stop offset="0" stop-color="#ffd35a" stop-opacity="0.35"/>
      <stop offset="1" stop-color="#ffd35a" stop-opacity="0"/>
    </radialGradient>
    <radialGradient id="core" cx="0.5" cy="0.5" r="0.5">
      <stop offset="0" stop-color="#fff8e0"/>
      <stop offset="1" stop-color="#ffd35a"/>
    </radialGradient>
  </defs>
  <rect x="2.5" y="2.5" width="507" height="507" rx="115" fill="url(#sky)"/>
  <circle cx="256" cy="256" r="200" fill="url(#glow)"/>
  <!-- main sparkle: R=182, inner=0.16 -> r=29 -->
  <path fill="#ffd35a" d="M256 74 L285 227 L438 256 L285 285 L256 438 L227 285 L74 256 L227 227 Z"/>
  <circle cx="256" cy="256" r="46" fill="url(#core)"/>
  <!-- decorative stars -->
  <path fill="#e0e8ff" d="M397 120 L406 129 L430 120 L406 111 L397 87 L388 111 L364 120 L388 129 Z" opacity="0.95"/>
  <path fill="#e0e8ff" d="M120 389 L126 396 L143 389 L126 383 L120 366 L114 383 L97 389 L114 396 Z" opacity="0.85"/>
  <path fill="#e0e8ff" d="M410 369 L415 374 L420 369 L415 363 L410 358 L406 363 L401 369 L406 374 Z" opacity="0.9"/>
</svg>
